<?xml version="1.0" encoding="utf-8"?>
<!-- Generator: Adobe Illustrator 22.0.0, SVG Export Plug-In . SVG Version: 6.00 Build 0)  -->
<svg version="1.1" id="Layer_1" xmlns="http://www.w3.org/2000/svg" xmlns:xlink="http://www.w3.org/1999/xlink" x="0px" y="0px"
	 viewBox="0 0 50 50" style="enable-background:new 0 0 50 50;" xml:space="preserve">
<style type="text/css">
	.st0{fill:#FBB945;}
	.st1{fill:#985184;}
	.st2{fill:#1AD3BB;}
	.st3{fill:#3184FE;}
	.st4{fill:#FFFFFF;}
</style>
<g>
	<path class="st0" d="M20.5,23.8H8c-1.9,0-3.4-1.5-3.4-3.4V8c0-1.9,1.5-3.4,3.4-3.4h12.5c1.9,0,3.4,1.5,3.4,3.4v12.5
		C23.8,22.3,22.3,23.8,20.5,23.8z"/>
	<path class="st1" d="M20.5,46.1H8c-1.9,0-3.4-1.5-3.4-3.4V30.2c0-1.9,1.5-3.4,3.4-3.4h12.5c1.9,0,3.4,1.5,3.4,3.4v12.5
		C23.8,44.6,22.3,46.1,20.5,46.1z"/>
	<path class="st2" d="M42.2,24.1H29.8c-1.9,0-3.4-1.5-3.4-3.4V8.2c0-1.9,1.5-3.4,3.4-3.4h12.5c1.9,0,3.4,1.5,3.4,3.4v12.5
		C45.6,22.5,44.1,24.1,42.2,24.1z"/>
	<path class="st3" d="M42.2,46.1H29.8c-1.9,0-3.4-1.5-3.4-3.4V30.2c0-1.9,1.5-3.4,3.4-3.4h12.5c1.9,0,3.4,1.5,3.4,3.4v12.5
		C45.6,44.6,44.1,46.1,42.2,46.1z"/>
	<g>
		<path class="st4" d="M15.1,20.5H14c-0.5,0-0.9-0.4-0.9-0.9v-2.5c0-0.5-0.4-0.9-0.9-0.9H9.7c-0.5,0-0.9-0.4-0.9-0.9v-1.2
			c0-0.5,0.4-0.9,0.9-0.9h2.5c0.5,0,0.9-0.4,0.9-0.9V9.9C13.1,9.4,13.5,9,14,9h1.1C15.6,9,16,9.4,16,9.9v2.5c0,0.5,0.4,0.9,0.9,0.9
			h2.5c0.5,0,0.9,0.4,0.9,0.9v1.2c0,0.5-0.4,0.9-0.9,0.9h-2.5c-0.5,0-0.9,0.4-0.9,0.9v2.5C16,20.1,15.6,20.5,15.1,20.5z"/>
	</g>
	<g>
		<path class="st4" d="M41.3,13.8v1.3c0,0.5-0.4,0.9-0.9,0.9h-8.3c-0.5,0-0.9-0.4-0.9-0.9v-1.3c0-0.5,0.4-0.9,0.9-0.9h8.3
			C40.9,12.9,41.3,13.3,41.3,13.8z"/>
	</g>
	<g>
		<path class="st4" d="M16.7,41.4l-2.2-2.7l-2.3,2.7c-0.3,0.4-0.6,0.6-0.8,0.8c-0.2,0.2-0.5,0.2-0.9,0.2c-0.4,0-0.7-0.1-1-0.3
			s-0.4-0.4-0.4-0.7c0-0.3,0.2-0.6,0.6-1.1l2.8-3.3L10,34.3c-0.4-0.5-0.6-0.8-0.6-1.2c0-0.3,0.1-0.5,0.4-0.7c0.3-0.2,0.6-0.3,1-0.3
			c0.4,0,0.7,0.1,0.9,0.3c0.2,0.2,0.5,0.4,0.8,0.8l2,2.2l1.9-2.2c0.3-0.4,0.6-0.6,0.8-0.8c0.2-0.2,0.5-0.2,0.9-0.2
			c0.4,0,0.7,0.1,1,0.3s0.4,0.4,0.4,0.7c0,0.2-0.1,0.4-0.2,0.5c-0.1,0.2-0.3,0.4-0.5,0.6L16.4,37l2.8,3.3c0.4,0.5,0.6,0.9,0.6,1.2
			c0,0.3-0.1,0.5-0.4,0.7c-0.3,0.2-0.6,0.3-1,0.3c-0.3,0-0.6-0.1-0.9-0.3C17.2,42,17,41.7,16.7,41.4z"/>
	</g>
	<g>
		<path class="st4" d="M31.7,33h8.6c0.6,0,1.1,0.5,1.1,1.1v0.5c0,0.6-0.5,1.1-1.1,1.1h-8.6c-0.6,0-1.1-0.5-1.1-1.1v-0.5
			C30.6,33.5,31.1,33,31.7,33z M31.7,37.3h8.6c0.6,0,1.1,0.5,1.1,1.1v0.5c0,0.6-0.5,1.1-1.1,1.1h-8.6c-0.6,0-1.1-0.5-1.1-1.1v-0.5
			C30.6,37.8,31.1,37.3,31.7,37.3z"/>
	</g>
</g>
</svg>
